<?xml version="1.0" encoding="utf-8"?>
<!-- Generator: Adobe Illustrator 19.0.0, SVG Export Plug-In . SVG Version: 6.00 Build 0)  -->
<svg version="1.1" id="Layer_1" xmlns="http://www.w3.org/2000/svg" xmlns:xlink="http://www.w3.org/1999/xlink" x="0px" y="0px"
	 viewBox="-218 21 522 520" style="enable-background:new -218 21 522 520;" xml:space="preserve">
<style type="text/css">
	.st0{fill:#0076A2;}
	.st1{fill:#1782AA;}
	.st2{fill:#5EA8C5;}
	.st3{fill:#FEFEFE;}
	.st4{fill:#0176A3;}
</style>
<path class="st0" d="M193,538c-99.7,0-199.3,0-299,0c-8.7-1.8-17.7-1.2-26.3-4.4c-38.4-14.5-64-41.1-76.8-80.1
	c-2.3-7-1.4-14.4-2.9-21.5c0-100,0-200,0-300c1.8-8.5,1.1-17.4,4.2-25.8c14.5-38.6,41.1-64.5,80.3-77.3c6.3-2.1,13.1-1.7,19.7-2.4
	c1-0.1,2,0.3,2.8-0.5c99.3,0,198.7,0,298,0c2.3,1.1,4.9,0.7,7.3,0.8c20.7,0.8,38,10.1,54,22.1c20.3,15.3,34.2,35.4,42.3,59.6
	c2.3,7,2.1,14.4,3,21.6c0.1,1-0.3,2,0.5,2.8c0,1,0,2,0,3c-0.6,0.7-0.6,1.3,0,2c0,93.7,0,187.3,0,281c-0.8,2-0.8,4,0,6
	c0,2.7,0,5.3,0,8c-1.9,8-1.1,16.4-4.1,24.4c-14.4,38.8-41.1,64.8-80.4,77.7c-6.3,2.1-13.1,1.7-19.7,2.4
	C194.9,537.6,193.8,537.2,193,538z"/>
<path class="st1" d="M300,425c-1.4-2-1.3-4,0-6C300,421,300,423,300,425z"/>
<path class="st2" d="M300,138c-0.8-0.7-1.1-1.3,0-2C300,136.7,300,137.3,300,138z"/>
<path class="st3" d="M-114.1,216.1c0-28.2-0.1-56.3,0-84.5c0.1-17,9.3-27.1,26.2-28.7c24.8-2.4,47.2,4.4,67.3,18.7
	c11.7,8.3,22.4,17.9,31,29.5c1.1,1.5,2.3,2.9,4.5,2.4c2-0.5,2.3-2.1,2.6-3.8c1.8-14.9,12.9-26.7,28.2-29.5
	c14.7-2.6,26.3,3,34.7,14.8c8.2,11.6,9.4,24.3,2.4,37.2c-0.5,0.9-1.1,1.7-1.4,2.6c-0.8,2.8-0.7,4.4,3.2,3.7c8.9-1.6,17.9-1.9,26.8,0
	c17.6,3.7,32.4,12.7,45.6,24.7c24.4,22.2,39,50.2,45.5,82c4.1,20.1,0.1,40.4-4.9,60.3c-4.3,17.1-13.5,31-24.7,43.9
	c-1.8,2.1-4.4,3.5-6.7,5c-2.1,1.3-4,1.1-5.6-1.1c-9-13-18-26-27-39c-2.1-3-1.8-6,0.8-8.6c7.4-7.3,12.1-16.8,18.9-24.5
	c13.6-15.2,14.3-33.6,14.9-52.2c0.2-5.8-1.7-11.1-4.7-16.1c-1.7-2.8-3.1-2.3-4.9-0.1c-1.5,1.9-1.7,4.3-2.3,6.5
	C143.7,299,94,315.3,62,290.2c-11.9-9.4-19-22.1-24-36.1c-0.5-1.3-0.3-3.4-2.2-3.6c-1.7-0.2-2.4,1.5-3,2.9
	c-8.1,16.9-20.1,30.9-33,44.2c-6.6,6.8-13.7,13.2-19.6,20.6c-20.8,26.4-13.9,59.1,16,74.4c23.7,12.1,47.9,10.9,71.9,0.7
	c16.1-6.8,30.4-16.4,44.3-26.9c7.1-5.4,8.8-5.1,13.8,2.4c6.9,10.6,14.4,20.8,22,30.9c4.8,6.4,4.3,9.4-2.3,14
	c-10.5,7.3-20.5,15.7-31.7,21.7c-21.8,11.6-44.5,21-69.5,24c-26.3,3.2-51.9,1.4-76.3-9.7c-50.6-22.9-69.6-67.3-57.6-119.4
	c4.9-21.4,16.4-39.1,31.1-55c8.1-8.7,17-16.4,25.6-24.5c7.8-7.3,15.3-14.9,21.9-23.3c14.1-18,13.9-37.7,5.5-57.5
	c-4.1-9.5-10.6-18.1-18-25.6c-4.1-4.2-8.6-7.9-13.9-10.6c-8-4.1-12.6-1.6-12.9,7.4c-0.4,11-0.5,22-0.5,33c-0.1,18.2-0.2,36.3,0,54.5
	c0.1,7.1-2.2,12.8-6.9,18c-17.3,19.4-34.4,39-51.5,58.5c-1.2,1.4-2,3.9-4.6,2.8c-2.2-1-1.9-3.3-1.9-5.3c0-29,0-58,0-87
	C-115.1,216.1-114.6,216.1-114.1,216.1z"/>
<path class="st4" d="M31.9,193.1c0.2-4.9,2.6-6,6.1-5.4c5.2,0.9,9.8,3.9,15.4,3.9c2.3,0,2.3,2.7,0.8,4.2c-5.2,5.3-8.9,11.6-12.4,18
	c-1.4,2.6-3.3,2.9-4,0C36.1,206.6,34.9,199.2,31.9,193.1z"/>
</svg>
