<?xml version="1.0" encoding="utf-8"?>
<!-- Generator: Adobe Illustrator 19.0.0, SVG Export Plug-In . SVG Version: 6.00 Build 0)  -->
<svg version="1.1" id="Layer_1" xmlns="http://www.w3.org/2000/svg" xmlns:xlink="http://www.w3.org/1999/xlink" x="0px" y="0px"
	 viewBox="0 0 52.2 29.6" style="enable-background:new 0 0 52.2 29.6;" xml:space="preserve">
<style type="text/css">
	.st0{fill:#F2F2F2;}
</style>
<g id="XMLID_2_">
	<path id="XMLID_1_" class="st0" d="M6,20.3L6,20.3c3,0,5.5-2.5,5.5-5.5v0c0-3-2.5-5.5-5.5-5.5h0c-3,0-5.5,2.5-5.5,5.5v0
		C0.5,17.8,3,20.3,6,20.3z"/>
	<path id="XMLID_3_" class="st0" d="M32.9,29.1L32.9,29.1c-3,0-5.5-2.5-5.5-5.5V6.1c0-3,2.5-5.5,5.5-5.5h0c3,0,5.5,2.5,5.5,5.5v17.5
		C38.4,26.6,35.9,29.1,32.9,29.1z"/>
	<path id="XMLID_4_" class="st0" d="M19.4,21.8L19.4,21.8c3,0,5.5-2.5,5.5-5.5v-3c0-3-2.5-5.5-5.5-5.5h0c-3,0-5.5,2.5-5.5,5.5v3
		C13.9,19.3,16.4,21.8,19.4,21.8z"/>
	<path id="XMLID_5_" class="st0" d="M46.3,9.3L46.3,9.3c3,0,5.5,2.5,5.5,5.5v0c0,3-2.5,5.5-5.5,5.5h0c-3,0-5.5-2.5-5.5-5.5v0
		C40.8,11.8,43.2,9.3,46.3,9.3z"/>
</g>
</svg>
