<?xml version="1.0" encoding="utf-8"?>
<!-- Generator: Adobe Illustrator 19.0.0, SVG Export Plug-In . SVG Version: 6.00 Build 0)  -->
<svg version="1.1" id="Layer_1" xmlns="http://www.w3.org/2000/svg" xmlns:xlink="http://www.w3.org/1999/xlink" x="0px" y="0px"
	 viewBox="-443.4 268.1 60.9 24.8" style="enable-background:new -443.4 268.1 60.9 24.8;" xml:space="preserve">
<g id="XMLID_54_">
	<path id="XMLID_55_" d="M-438.5,291.3c-1.7-0.9-2.7-2.2-3.2-4V274c0-0.7-0.3-1.2-0.9-1.5l2.2-3.8c1,0.6,1.7,1.3,2.3,2.2
		c0.6,0.9,0.8,2,0.8,3.1v12.7c0.7,0.9,1.6,1.3,2.8,1.3v4.3C-436,292.3-437.3,292-438.5,291.3z"/>
	<path id="XMLID_57_" d="M-426.4,292.3h-8.1V288h2.5v-4.3c0.9-0.5,1.8-1,2.6-1.5c0.8-0.5,1.8-0.8,2.7-0.8c1.5,0,2.8,0.5,3.9,1.6
		c1.1,1.1,1.6,2.4,1.6,3.9c0,0.3,0,0.7-0.1,1c1-0.2,1.8-0.7,2.5-1.4c1-1.1,1.6-2.3,1.6-3.8s-0.5-2.7-1.6-3.8
		c-1.1-1.1-2.3-1.6-3.8-1.6c-1,0-1.9,0.2-2.7,0.7l-3.5,2l-2.2-3.7l3.6-2.1c1.5-0.9,3.1-1.3,4.9-1.3c1.3,0,2.6,0.3,3.8,0.8
		c1.2,0.5,2.2,1.2,3.1,2.1s1.6,1.9,2.1,3.1c0.5,1.2,0.8,2.4,0.8,3.8c0,1.3-0.3,2.6-0.8,3.8c-0.5,1.2-1.2,2.2-2.1,3.1
		s-1.9,1.6-3.1,2.1c-1.2,0.5-2.4,0.8-3.8,0.8C-422.5,292.3-423.8,292.3-426.4,292.3z M-425.9,287.7c0.2-0.2,0.3-0.5,0.3-0.8
		c0-0.3-0.1-0.6-0.3-0.8c-0.2-0.2-0.5-0.3-0.8-0.3c-0.2,0-0.4,0-0.5,0.1s-0.3,0.2-0.5,0.3v1.8h1C-426.4,288-426.1,287.9-425.9,287.7
		z"/>
	<path id="XMLID_60_" d="M-408,289.8c-0.5-0.9-0.8-1.9-0.8-3.1v-16.1h4.3v16.1c0,0.7,0.3,1.2,0.9,1.5l-2.1,3.8
		C-406.7,291.5-407.5,290.7-408,289.8z"/>
	<path id="XMLID_62_" d="M-400.4,292.3V288h7.3l0,0c1.5,0,2.7-0.5,3.8-1.6c1.1-1.1,1.6-2.3,1.6-3.8s-0.5-2.7-1.6-3.8
		c-1.1-1.1-2.3-1.6-3.8-1.6c-1,0-1.9,0.2-2.7,0.7l-3.6,2.1l-2.2-3.8l3.6-2.1c1.5-0.9,3.1-1.3,4.9-1.3c1.3,0,2.6,0.3,3.8,0.8
		c1.2,0.5,2.2,1.2,3.1,2.1s1.6,1.9,2.1,3.1c0.5,1.2,0.8,2.4,0.8,3.8s-0.3,2.6-0.8,3.8c-0.5,1.2-1.2,2.2-2.1,3.1
		c-0.9,0.9-1.9,1.6-3.1,2.1c-1.2,0.5-2.4,0.8-3.8,0.8L-400.4,292.3z"/>
</g>
</svg>
