<?xml version="1.0" encoding="utf-8"?>
<!-- Generator: Adobe Illustrator 19.0.0, SVG Export Plug-In . SVG Version: 6.00 Build 0)  -->
<svg version="1.1" id="OL" xmlns="http://www.w3.org/2000/svg" xmlns:xlink="http://www.w3.org/1999/xlink" x="0px" y="0px"
	 viewBox="-412 261 135 40" style="enable-background:new -412 261 135 40;" xml:space="preserve">
<style type="text/css">
	.st0{fill:#FFFFFF;}
</style>
<path d="M-407,261h125c2.8,0,5,2.2,5,5v30c0,2.8-2.2,5-5,5h-125c-2.8,0-5-2.2-5-5v-30C-412,263.2-409.8,261-407,261z"/>
<g>
	<path class="st0" d="M-357.2,283.4c-0.3,0-0.7,0-1-0.1c-0.3-0.2-0.6-0.4-0.7-0.7c-0.2,0.6-0.9,1-1.5,0.9c-0.6,0-1.1-0.2-1.5-0.6
		s-0.6-0.9-0.6-1.5V280c-0.3,0-0.6,0.1-0.9,0.3c-0.3,0.2-0.4,0.5-0.4,0.8v5.2h-1.1v-5.1c0-0.6,0.2-1.3,0.6-1.8s1.1-0.7,1.7-0.7h2.3
		c1.2,0,1.8,0.9,1.8,2.7c0,0.5,0.4,0.7,1.3,0.7L-357.2,283.4z M-359.6,281.3c0-0.4,0-0.7-0.2-1.1c-0.2-0.2-0.7-0.3-1.6-0.3v1.6
		c0,0.2,0.1,0.5,0.3,0.6c0.2,0.1,0.4,0.2,0.6,0.2C-359.9,282.3-359.6,282-359.6,281.3z"/>
	<path class="st0" d="M-352.5,283.4c-0.3,0-0.7,0-1,0c-0.2-0.1-0.4-0.2-0.6-0.4c-0.3,0.3-0.7,0.4-1.1,0.4h-2.5v-1.2h2.1
		c0.2,0,0.5,0,0.7-0.2s0.2-0.4,0.2-0.7v-1.6h1.1v1.6c0,0.3,0.1,0.5,0.3,0.7c0.3,0.1,0.5,0.1,0.8,0.1V283.4z M-355.7,285.6
		c0,0.2-0.1,0.4-0.2,0.5s-0.3,0.2-0.5,0.2s-0.4-0.1-0.6-0.2s-0.3-0.3-0.3-0.5c0-0.4,0.3-0.6,0.7-0.6
		C-356.1,284.9-355.7,285.1-355.7,285.6z M-353.5,285.6c0,0.2-0.1,0.4-0.2,0.5s-0.3,0.2-0.5,0.2s-0.4-0.1-0.6-0.2s-0.3-0.3-0.3-0.5
		c0-0.4,0.3-0.6,0.7-0.6S-353.5,285.1-353.5,285.6z"/>
	<path class="st0" d="M-347,283.4c-0.2,0-0.4,0-0.7,0h-1.2c-0.4,0-0.7-0.1-1.1-0.3c-1.1,0.3-2.2,0.4-3.3,0.3v-1.2h1.7
		c-0.4-0.4-0.6-0.9-0.6-1.5c0-0.5,0.2-1.1,0.6-1.4c0.4-0.4,1-0.5,1.5-0.5s1,0.2,1.4,0.6s0.6,0.9,0.5,1.5c0,0.5-0.1,1-0.4,1.4h1.5
		L-347,283.4z M-350.5,276.6c0,0.2-0.1,0.4-0.2,0.5s-0.3,0.2-0.5,0.2c-0.5,0-0.8-0.2-0.8-0.7c0-0.4,0.2-0.6,0.7-0.6
		C-350.8,275.9-350.5,276.2-350.5,276.6z M-349.1,280.9c0-0.3-0.1-0.5-0.3-0.7c-0.2-0.2-0.4-0.3-0.7-0.3c-0.2,0-0.5,0.1-0.6,0.3
		c-0.2,0.2-0.3,0.4-0.3,0.6c0,0.5,0.4,0.9,1.2,1.2C-349.4,281.7-349.2,281.4-349.1,280.9z M-348.3,276.6c0,0.2-0.1,0.4-0.2,0.5
		s-0.3,0.2-0.5,0.2c-0.5,0-0.8-0.2-0.8-0.7c0-0.4,0.3-0.6,0.7-0.6S-348.3,276.2-348.3,276.6z"/>
	<path class="st0" d="M-342.3,283.4c-0.3,0-0.7,0-1,0c-0.2-0.1-0.4-0.2-0.6-0.4c-0.3,0.3-0.7,0.4-1.1,0.4h-2.5v-1.2h2.1
		c0.2,0,0.5,0,0.7-0.2c0.1-0.2,0.2-0.4,0.2-0.7v-1.6h1.2v1.6c0,0.3,0.1,0.6,0.3,0.7c0.3,0.1,0.5,0.1,0.8,0.1v1.3H-342.3z
		 M-344.8,277.9c0,0.2-0.1,0.4-0.2,0.5s-0.3,0.2-0.5,0.2c-0.5,0-0.8-0.2-0.8-0.7c0-0.4,0.2-0.6,0.7-0.6
		C-345.1,277.2-344.8,277.4-344.8,277.9z M-342.6,277.9c0,0.2-0.1,0.4-0.2,0.5s-0.3,0.2-0.5,0.2c-0.5,0-0.8-0.2-0.8-0.7
		c0-0.4,0.2-0.6,0.7-0.6C-342.9,277.2-342.6,277.4-342.6,277.9z"/>
	<path class="st0" d="M-332.3,283.4c-0.3,0-0.6,0-0.9-0.1s-0.5-0.3-0.7-0.5c-0.3,0.5-0.8,0.8-1.4,0.8s-1.2-0.3-1.6-0.7
		c-0.4,0.5-1,0.8-1.7,0.7c-0.6,0-1.2-0.3-1.5-0.8c-0.3,0.4-0.8,0.6-1.3,0.6s-1,0-1.5,0v-1.2h1c0.3,0,0.6,0,0.9-0.2
		c0.2-0.2,0.4-0.5,0.3-0.8v-1.5h1.1v1.7c0,0.3,0.1,0.5,0.3,0.7c0.2,0.2,0.4,0.3,0.7,0.3c0.5,0,0.8-0.2,0.8-0.7v-1.9h1.1v1.7
		c0,0.3,0.1,0.5,0.3,0.7c0.2,0.2,0.4,0.3,0.7,0.3c0.5,0,0.8-0.2,0.8-0.7v-1.9h1.1v1.8c0,0.3,0.2,0.5,0.4,0.6
		c0.3,0.1,0.6,0.1,0.9,0.1L-332.3,283.4z"/>
	<path class="st0" d="M-327.6,281.2c0,0.6-0.2,1.1-0.5,1.6c-0.4,0.5-0.9,0.7-1.5,0.7c-0.5,0-0.9-0.1-1.3-0.4
		c-0.6,0.2-1.3,0.3-1.9,0.3v-1.2c0.6,0,1,0,1.1-0.2c0-0.3,0-0.6,0-0.9c0-1.6,0.7-2.4,2.1-2.4c0.6,0,1.2,0.3,1.5,0.8
		S-327.6,280.6-327.6,281.2z M-328.6,281.1c0-0.8-0.3-1.2-1-1.2s-1,0.4-1,1.3s0.3,1.2,1,1.2S-328.6,282-328.6,281.1z"/>
	<path class="st0" d="M-313,283.4c-0.6,0.1-1.3-0.1-1.8-0.4c-0.3,0.3-0.7,0.4-1.1,0.4h-6.1c-0.5,0-0.9-0.2-1.2-0.6
		c-0.3-0.4-0.5-0.8-0.4-1.3v-1.7h1.2v1.6c0,0.2,0,0.5,0.2,0.7s0.4,0.2,0.7,0.2h5.3c0.2,0,0.5,0,0.7-0.2c0.1-0.2,0.2-0.4,0.2-0.7
		v-1.6h1.2v1.6c0,0.6,0.4,0.9,1.3,0.9L-313,283.4z M-319.3,277.8c0,0.2-0.1,0.4-0.2,0.5s-0.3,0.2-0.5,0.2c-0.6,0-0.8-0.2-0.8-0.7
		c0-0.4,0.3-0.6,0.7-0.6S-319.3,277.4-319.3,277.8z M-317.1,277.8c0,0.2-0.1,0.4-0.2,0.5s-0.3,0.2-0.5,0.2c-0.5,0-0.8-0.2-0.8-0.7
		c0-0.4,0.2-0.6,0.7-0.6C-317.4,277.2-317.1,277.4-317.1,277.8z"/>
	<path class="st0" d="M-308.1,281.6c0,0.5-0.2,1-0.5,1.3c-0.4,0.3-0.8,0.5-1.3,0.5h-3.4v-1.2h3.5c0.4,0,0.6-0.3,0.6-0.9
		c-0.6,0-1.3,0-2-0.1c-0.6-0.2-1-0.9-1-1.6c0-0.5,0.2-1,0.5-1.3c0.4-0.3,0.9-0.5,1.4-0.5c0.4,0,0.9,0.1,1.3,0.4c0.6,0.4,1,1.2,1,1.9
		L-308.1,281.6z M-309.4,280.3c0-0.9-0.4-1.3-1.1-1.3s-0.7,0.2-0.7,0.6s0.1,0.5,0.3,0.6c0.2,0,0.5,0,0.7,0L-309.4,280.3z
		 M-309.6,276.4c0,0.2-0.1,0.4-0.2,0.6s-0.4,0.2-0.6,0.2c-0.6,0-0.8-0.3-0.8-0.8s0.3-0.7,0.8-0.7
		C-309.9,275.7-309.6,275.9-309.6,276.4z"/>
	<path class="st0" d="M-304.2,283.4c-0.7,0.1-1.5-0.1-2.1-0.6c-0.3-0.3-0.4-0.7-0.4-1.2v-5.4h1.2v4.9c0,0.5,0.1,0.9,0.3,1
		c0.3,0.1,0.7,0.2,1,0.1V283.4z"/>
	<path class="st0" d="M-300.5,281.5c0,0.5-0.1,0.9-0.4,1.3s-0.7,0.6-1.2,0.6h-2.5v-1.2h2.1c0.2,0,0.5,0,0.7-0.2
		c0.1-0.2,0.2-0.4,0.2-0.7v-1.6h1.1L-300.5,281.5L-300.5,281.5z M-302.9,285.6c0,0.2-0.1,0.4-0.2,0.5s-0.3,0.2-0.5,0.2
		s-0.4-0.1-0.5-0.2c-0.2-0.1-0.3-0.3-0.3-0.5c0-0.4,0.2-0.6,0.7-0.6C-303.2,284.9-302.9,285.1-302.9,285.6z M-300.7,285.6
		c0,0.2-0.1,0.4-0.2,0.5s-0.3,0.2-0.5,0.2s-0.4-0.1-0.5-0.2c-0.2-0.1-0.3-0.3-0.3-0.5c0-0.4,0.2-0.6,0.7-0.6
		S-300.7,285.1-300.7,285.6z"/>
	<path class="st0" d="M-295.2,283.2c0,0.8-0.3,1.6-0.8,2.2s-1.3,0.9-2.1,0.9h-1.5l-0.2-1.2h1.3c0.5,0,1.1-0.1,1.5-0.4
		s0.7-0.7,0.7-1.3v-3.7h1.2L-295.2,283.2z"/>
	<path class="st0" d="M-288.5,281.9c0,0.4-0.2,0.9-0.5,1.1c-0.3,0.3-0.8,0.4-1.2,0.4h-3.6l-0.1-1.2h3.6c0.4,0,0.6-0.1,0.6-0.4
		c0-0.2-0.1-0.3-0.2-0.4l-2.6-2.7l0.8-0.8l2.6,2.7C-288.7,280.9-288.5,281.4-288.5,281.9z"/>
</g>
<g>
	<path class="st0" d="M-385.8,269.9l1.3-1.9c0.1-0.1,0.1-0.2,0-0.3c-0.1-0.1-0.3,0-0.3,0.1l0,0l-1.4,2c-1.9-0.7-4.1-0.7-6,0l-1.4-2
		c-0.1-0.1-0.2-0.2-0.3-0.1l0,0c-0.1,0.1-0.1,0.2,0,0.3l1.3,1.9c-2.1,0.9-3.5,2.8-3.8,5.1h14.4
		C-382.3,272.7-383.7,270.8-385.8,269.9z M-392.3,273c-0.4,0-0.8-0.4-0.8-0.8s0.4-0.8,0.8-0.8l0,0c0.4,0,0.8,0.4,0.8,0.8
		S-391.8,273-392.3,273z M-386.2,273c-0.4,0-0.8-0.4-0.8-0.8s0.4-0.8,0.8-0.8s0.8,0.4,0.8,0.8l0,0C-385.4,272.6-385.7,273-386.2,273
		L-386.2,273L-386.2,273z"/>
	<path class="st0" d="M-397.4,284.1c0,0.9-0.7,1.6-1.6,1.6l0,0c-0.9,0-1.6-0.7-1.6-1.6v-6.5c0-0.9,0.7-1.6,1.6-1.6l0,0
		c0.9,0,1.6,0.7,1.6,1.6V284.1z"/>
	<path class="st0" d="M-396.5,276v11.8c0,0.7,0.5,1.2,1.2,1.2h1.5v3.6c-0.1,0.9,0.6,1.7,1.5,1.8c0.9,0.1,1.7-0.6,1.8-1.5
		c0-0.1,0-0.2,0-0.3V289h2.4v3.6c-0.1,0.9,0.6,1.7,1.5,1.8c0.9,0.1,1.7-0.6,1.8-1.5c0-0.1,0-0.2,0-0.3V289h1.5
		c0.7,0,1.2-0.5,1.2-1.2V276H-396.5z"/>
	<path class="st0" d="M-381.1,284.1c0,0.9,0.7,1.6,1.6,1.6l0,0c0.9,0,1.6-0.7,1.6-1.6v-6.5c0-0.9-0.7-1.6-1.6-1.6l0,0
		c-0.9,0-1.6,0.7-1.6,1.6V284.1z"/>
</g>
</svg>
