<?xml version="1.0" encoding="utf-8"?>
<!-- Generator: Adobe Illustrator 19.0.0, SVG Export Plug-In . SVG Version: 6.00 Build 0)  -->
<svg version="1.1" id="OL" xmlns="http://www.w3.org/2000/svg" xmlns:xlink="http://www.w3.org/1999/xlink" x="0px" y="0px"
	 viewBox="-412 261 135 40" style="enable-background:new -412 261 135 40;" xml:space="preserve">
<style type="text/css">
	.st0{fill:#FFFFFF;}
	.st1{fill:url(#SVGID_1_);}
</style>
<path d="M-407,261h125c2.8,0,5,2.2,5,5v30c0,2.8-2.2,5-5,5h-125c-2.8,0-5-2.2-5-5v-30C-412,263.2-409.8,261-407,261z"/>
<g>
	<path class="st0" d="M-321.7,282.9c0,0.7-0.2,1.4-0.7,1.9c-0.5,0.5-1.1,0.8-1.8,0.8h-1.3l-0.2-1h1.1c0.4,0,0.9-0.1,1.2-0.3
		c0.4-0.2,0.6-0.6,0.6-1.1v-3.2h1V282.9z M-321.7,277.3c0,0.2-0.1,0.4-0.2,0.5c-0.1,0.1-0.3,0.2-0.5,0.2c-0.5,0-0.8-0.2-0.8-0.7
		s0.2-0.6,0.7-0.6S-321.7,276.9-321.7,277.3L-321.7,277.3z"/>
	<path class="st0" d="M-319,283.1h-1v-6.4h1V283.1z"/>
	<path class="st0" d="M-305.8,283.1c-0.6,0.1-1.1-0.1-1.6-0.4c-0.3,0.2-0.6,0.4-1,0.4h-5.2c-0.4,0-0.8-0.2-1.1-0.5
		c-0.2-0.3-0.4-0.7-0.4-1.1V280h1v1.4c0,0.2,0,0.4,0.2,0.6c0.2,0.1,0.4,0.2,0.6,0.2h4.6c0.2,0,0.4,0,0.6-0.2
		c0.1-0.2,0.2-0.4,0.2-0.6v-1.4h1v1.4c0,0.5,0.4,0.8,1.1,0.8L-305.8,283.1z M-311.1,278.3c0,0.2-0.1,0.3-0.2,0.4
		c-0.1,0.1-0.3,0.2-0.4,0.2c-0.5,0-0.7-0.2-0.7-0.6s0.2-0.5,0.6-0.5C-311.4,277.8-311.2,277.9-311.1,278.3L-311.1,278.3z
		 M-309.2,278.3c0,0.2-0.1,0.3-0.2,0.4c-0.1,0.1-0.3,0.2-0.4,0.2c-0.5,0-0.7-0.2-0.7-0.6c0-0.4,0.2-0.5,0.7-0.5
		C-309.4,277.8-309.2,277.9-309.2,278.3L-309.2,278.3z"/>
	<path class="st0" d="M-301.5,281.5c0,0.4-0.2,0.8-0.5,1.1c-0.3,0.3-0.7,0.5-1.1,0.5h-3v-1h3c0.4,0,0.5-0.2,0.5-0.7
		c-0.5,0-1.1,0-1.7-0.1c-0.5-0.2-0.9-0.8-0.8-1.3c0-0.4,0.1-0.9,0.5-1.2c0.3-0.3,0.7-0.5,1.2-0.4c0.4,0,0.8,0.1,1.1,0.3
		c0.5,0.4,0.9,1,0.8,1.7L-301.5,281.5z M-302.6,280.4c0-0.7-0.3-1.1-0.9-1.1c-0.4,0-0.6,0.2-0.6,0.5c0,0.4,0.1,0.5,0.2,0.5
		c0.2,0,0.4,0.1,0.6,0.1L-302.6,280.4z M-302.8,277c0,0.2-0.1,0.4-0.2,0.5c-0.1,0.1-0.3,0.2-0.5,0.2c-0.5,0-0.7-0.2-0.7-0.7
		c0-0.5,0.2-0.6,0.7-0.6C-303,276.4-302.8,276.6-302.8,277L-302.8,277z"/>
	<path class="st0" d="M-298.1,283.1c-0.6,0.1-1.3-0.1-1.8-0.5c-0.3-0.3-0.4-0.7-0.3-1.1v-4.6h1v4.2c0,0.5,0.1,0.7,0.2,0.8
		c0.3,0.1,0.6,0.1,0.9,0.1V283.1z"/>
	<path class="st0" d="M-295,281.4c0,0.4-0.1,0.8-0.4,1.1c-0.3,0.3-0.7,0.5-1.1,0.5h-2.1v-1h1.8c0.2,0,0.4,0,0.6-0.2
		c0.1-0.2,0.2-0.4,0.2-0.6v-1.3h1L-295,281.4z M-297.1,285c0,0.2-0.1,0.3-0.2,0.4c-0.1,0.1-0.3,0.2-0.4,0.2c-0.2,0-0.3,0-0.5-0.2
		c-0.1-0.1-0.2-0.3-0.2-0.4c0-0.4,0.2-0.5,0.6-0.5S-297.1,284.6-297.1,285z M-295.2,285c0,0.2-0.1,0.3-0.2,0.4
		c-0.1,0.1-0.3,0.2-0.4,0.2c-0.2,0-0.3,0-0.5-0.2c-0.1-0.1-0.2-0.3-0.2-0.4c0-0.4,0.2-0.5,0.6-0.5S-295.2,284.6-295.2,285z"/>
	<path class="st0" d="M-290.4,282.9c0,0.7-0.2,1.4-0.7,1.9c-0.4,0.5-1.1,0.8-1.8,0.8h-1.3l-0.2-1h1.1c0.4,0,0.9-0.1,1.2-0.3
		c0.4-0.2,0.6-0.6,0.6-1.1v-3.2h1.1L-290.4,282.9z"/>
	<path class="st0" d="M-284.6,281.8c0,0.4-0.1,0.7-0.4,1c-0.3,0.2-0.7,0.4-1.1,0.3h-3.1l-0.1-1h3.1c0.4,0,0.5-0.1,0.5-0.4
		c0-0.1-0.1-0.3-0.2-0.4l-2.2-2.4l0.7-0.7l2.2,2.4C-284.8,281-284.6,281.4-284.6,281.8z"/>
</g>
<g>
	<path class="st0" d="M-344.2,278.3c0-1.7,0-3.3,0-4.9c0-0.9,0.6-1.7,1.4-2c0.8-0.3,1.8-0.1,2.4,0.6c0.4,0.4,0.6,1,0.6,1.6
		c0,2.7,0,5.5,0,8.2c0,0.3,0.1,0.3,0.3,0.3c1.3,0,2.7,0,4,0c1.2,0,2.1,1,2.1,2.2c0,0.9-0.6,1.7-1.5,2c-0.2,0.1-0.4,0.1-0.7,0.1h-5.3
		c-1.8,0-3.3-1.4-3.3-3.2c0,0,0,0,0,0C-344.2,283.1-344.2,278.3-344.2,278.3z"/>
	<path class="st0" d="M-346.3,283.7v3.6c0.1,1.8-1.3,3.3-3.1,3.4c-0.1,0-0.2,0-0.2,0h-5.4c-1,0-1.8-0.7-2-1.7
		c-0.2-0.9,0.2-1.9,1-2.4c0.4-0.2,0.8-0.3,1.2-0.3h4c0.2,0,0.3-0.1,0.3-0.3c0-2.1,0-4.1,0-6.2c0-1.2,1-2.2,2.2-2.2s2.2,1,2.2,2.2
		C-346.3,281.2-346.3,282.4-346.3,283.7L-346.3,283.7z"/>
	<path class="st0" d="M-359.3,279.4c0,1.3,0,2.6,0,3.9c-0.1,1.6-1.4,2.9-3.1,3c-1.9,0-3.8,0-5.7,0c-1.2,0-2.1-1-2.1-2.2
		c0-1.2,1-2.1,2.1-2.1c1.4,0,2.8,0,4.1,0c0.3,0,0.3-0.1,0.3-0.3c0-2,0-4,0-6.1c-0.1-1.2,0.8-2.2,2-2.3c1.2-0.1,2.2,0.8,2.3,2
		c0,0.1,0,0.1,0,0.2C-359.3,276.8-359.3,278.1-359.3,279.4L-359.3,279.4z"/>
	<path class="st0" d="M-357.1,276.6c0-1.8,0-3.5,0-5.3c0-1.2,0.9-2.2,2.1-2.2s2.2,0.9,2.2,2.1c0,0.8,0,1.6,0,2.4v8.3
		c0.1,1.1-0.7,2.1-1.8,2.2c-1.2,0.2-2.2-0.6-2.4-1.8c0,0,0-0.1,0-0.1c0-0.9,0-1.9,0-2.8L-357.1,276.6z"/>
	<path class="st0" d="M-342,292.8c-1.2,0-2.2-0.9-2.2-2.1c0,0,0,0,0,0c0-1.2,0.9-2.2,2.1-2.2c1.2,0,2.2,0.9,2.2,2.1
		C-339.8,291.8-340.8,292.8-342,292.8C-342,292.8-342,292.8-342,292.8z"/>
	<path class="st0" d="M-348.5,271.2c1.2,0,2.2,1,2.2,2.2c0,1.2-1,2.2-2.2,2.2c-1.2,0-2.2-1-2.2-2.1
		C-350.6,272.2-349.7,271.3-348.5,271.2C-348.5,271.2-348.5,271.2-348.5,271.2z"/>
</g>
<linearGradient id="SVGID_1_" gradientUnits="userSpaceOnUse" x1="-389.3952" y1="268.8896" x2="-389.3952" y2="297.0196" gradientTransform="matrix(1 0 0 -1 0 564)">
	<stop  offset="0" style="stop-color:#129E4A"/>
	<stop  offset="0.89" style="stop-color:#95C83E"/>
</linearGradient>
<path class="st1" d="M-389.3,295.1c-3,0-5.8-1.1-8.1-3c-1.7-1.5-3-3.4-3.7-5.6c-0.6-2-1.1-4-1.4-6c-0.2-1.2-0.4-2.4-0.5-3.7
	c-0.1-0.5,0-0.6,0.5-0.9c0.8-0.4,1.8-0.8,2.7-0.9c1.3-0.3,2.7-0.5,4-0.6c0.2,0,0.3-0.1,0.4-0.3c0.6-1.3,1-2.6,1.7-3.9
	c0.4-0.8,0.9-1.6,1.5-2.2c0.7-0.7,1.7-1.2,2.8-1.2c1,0,1.9,0.3,2.6,0.9c0.9,0.8,1.6,1.8,2.1,3c0.5,1.1,0.9,2.2,1.4,3.3
	c0.1,0.2,0.3,0.4,0.5,0.4c1.8,0.1,3.6,0.5,5.3,1c0.5,0.2,1,0.4,1.4,0.6c0.2,0.1,0.4,0.4,0.3,0.7c-0.3,2.4-0.6,4.9-1.2,7.3
	c-0.3,1.5-0.8,3-1.5,4.4c-1.8,3.5-5.2,6-9.1,6.5C-388.2,295.1-388.8,295.1-389.3,295.1z M-386.4,274.2c0.4,0,0.4,0,0.3-0.4l-0.7-1.6
	c-0.3-0.8-0.7-1.5-1.3-2.2c-0.5-0.7-1.5-0.9-2.2-0.4c-0.1,0-0.1,0.1-0.1,0.1c-0.4,0.3-0.7,0.7-0.9,1.2c-0.6,1-0.9,2.1-1.4,3.1
	c-0.1,0.2,0,0.2,0.1,0.2c0.4,0,0.8,0,1.1,0C-389.7,274.2-388.1,274.1-386.4,274.2z"/>
</svg>
