<?xml version="1.0" encoding="utf-8"?>
<!-- Generator: Adobe Illustrator 19.0.0, SVG Export Plug-In . SVG Version: 6.00 Build 0)  -->
<svg version="1.1" id="Layer_1" xmlns="http://www.w3.org/2000/svg" xmlns:xlink="http://www.w3.org/1999/xlink" x="0px" y="0px"
	 viewBox="-387 253 185 55" style="enable-background:new -387 253 185 55;" xml:space="preserve">
<style type="text/css">
	.st0{fill:#FFFFFF;}
	.st1{fill:#00B0FF;}
</style>
<g id="get1-fa-reflect" transform="translate(-20 -24.499)">
	<path id="Path_23554" d="M-182,327c0,3-2.3,5.5-5.3,5.5h-174.3c-3,0-5.4-2.5-5.3-5.5v-44c0-3,2.3-5.5,5.3-5.5h174.3
		c3,0.1,5.4,2.5,5.3,5.5c0,0,0,0,0,0V327z"/>
	<g id="Group_4539" transform="translate(144.095 44.435)">
		<path id="Path_23555" class="st0" d="M-383.2,259.4c0.1,0.4,0.2,0.7,0.3,1.1c0,0.2,0.1,0.3,0.1,0.5c0,0.2,0.1,0.3,0.1,0.5
			c0,0.2,0.1,0.3,0.1,0.5c0,0.1,0,0.3,0.1,0.4c0,0.1,0,0.1,0,0.2v0.2c0,0.3-0.1,0.7-0.2,1c-0.1,0.3-0.2,0.6-0.4,0.9
			c-0.2,0.3-0.4,0.6-0.7,0.9c-0.3,0.3-0.5,0.5-0.8,0.8c-0.3,0.2-0.6,0.5-0.9,0.7c-0.3,0.2-0.7,0.4-1,0.6l-0.5-1.1
			c0.4-0.2,0.8-0.5,1.2-0.7c0.4-0.3,0.7-0.6,1.1-0.9c0.3-0.3,0.5-0.7,0.7-1c0.2-0.3,0.3-0.7,0.3-1.1v-0.1c0,0,0-0.1,0-0.1
			c0-0.1,0-0.3-0.1-0.4c0-0.2-0.1-0.3-0.1-0.5l-0.1-0.5c0-0.2-0.1-0.3-0.1-0.4c-0.1-0.3-0.2-0.7-0.3-1L-383.2,259.4z M-383,257l-1,1
			l-1-1l1-1L-383,257z"/>
		<path id="Path_23556" class="st0" d="M-380.4,263.3c0.1-0.9,0.1-1.8,0.1-2.6c0-0.8,0-1.6,0-2.3c0-0.7,0-1.3-0.1-1.9
			s-0.1-1-0.1-1.4s-0.1-0.7-0.1-0.9c0-0.2,0-0.3,0-0.3l1.2-0.2c0,0,0,0.3,0.1,0.7c0,0.2,0.1,0.5,0.1,0.7s0,0.6,0.1,0.9
			s0,0.6,0.1,0.9s0,0.5,0,0.8c0,0.7,0,1.6,0,2.5c0,0.9,0,2-0.1,3.1L-380.4,263.3z"/>
		<path id="Path_23557" class="st0" d="M-364,262.3c-0.2-0.2-0.3-0.4-0.4-0.7c-1.1,1.1-2.7,1.7-5,1.7c-1,0-2.1-0.1-3-0.4
			c-0.7-0.2-1.3-0.7-1.7-1.3c-0.1-0.2-0.2-0.4-0.3-0.6c-0.1-0.2-0.1-0.4-0.1-0.6c0-0.2,0-0.4,0-0.6c0-0.2,0.1-0.4,0.1-0.6
			c0.1-0.2,0.1-0.4,0.2-0.5c0.1-0.2,0.1-0.3,0.1-0.4c0-0.1,0.1-0.2,0.1-0.3c0,0,0-0.1,0.1-0.1l1,0.6l-0.1,0.1c0,0.1-0.1,0.2-0.1,0.3
			c-0.1,0.1-0.1,0.3-0.1,0.4c0,0.2-0.1,0.3-0.1,0.5c0,0.2,0,0.4,0,0.6c0,0.2,0.1,0.4,0.2,0.5c0.3,0.5,0.8,0.8,1.3,0.9
			c0.8,0.2,1.6,0.3,2.4,0.3c0.8,0,1.5-0.1,2.3-0.2c0.6-0.1,1.1-0.4,1.6-0.7c0.2-0.1,0.3-0.3,0.5-0.5c0.1-0.2,0.2-0.3,0.3-0.5
			c0.1-0.2,0.2-0.4,0.2-0.6c0.1-0.2,0.1-0.4,0.2-0.6l1.2,0.3c0,0.1,0,0.2-0.1,0.3s-0.1,0.2-0.1,0.3c-0.1,0.2-0.1,0.4-0.1,0.6
			c0,0.2,0,0.4,0.1,0.5c0,0.2,0.1,0.4,0.2,0.5c0.4,0.4,0.9,0.6,1.4,0.5c0.3,0,0.6,0.3,0.6,0.6s-0.3,0.6-0.6,0.6h-0.1
			C-362.6,263.4-363.5,263-364,262.3L-364,262.3z M-369.2,257.4l-1,1l-1-1l1-1L-369.2,257.4z M-366.7,257.4l-1,1l-1-1l1-1
			L-366.7,257.4z"/>
		<path id="Path_23558" class="st0" d="M-362.2,262.8c0-0.2,0.1-0.3,0.2-0.4c0.1-0.1,0.3-0.2,0.4-0.2c0.4,0,0.8,0,1.2-0.1
			c0.3,0,0.7-0.1,1-0.2c0.3,0,0.5-0.1,0.7-0.2c0.2-0.1,0.3-0.1,0.5-0.2c0,0,0.1-0.1,0.1-0.1c0,0,0.1-0.1,0.1-0.1h-0.6
			c-0.2,0-0.4,0-0.6-0.1c-0.2,0-0.4-0.1-0.6-0.2c-0.2-0.1-0.3-0.2-0.5-0.2c-0.2-0.2-0.4-0.4-0.6-0.6c-0.1-0.1-0.1-0.2-0.1-0.4
			c0-0.1-0.1-0.3-0.1-0.5c0-0.2,0-0.4,0-0.6c0-0.3,0.1-0.6,0.2-0.8c0.1-0.2,0.2-0.5,0.4-0.7c0.2-0.2,0.4-0.4,0.6-0.5
			c0.2-0.1,0.4-0.2,0.7-0.2c0.6,0,1.1,0.3,1.4,0.7c0.2,0.2,0.4,0.5,0.5,0.7c0.1,0.3,0.3,0.6,0.3,0.9c0.1,0.3,0.2,0.6,0.2,1
			c0,0.3,0,0.7,0,1c0,0.2-0.1,0.3-0.1,0.5c0,0.1,0,0.1-0.1,0.2c0,0.1-0.1,0.2-0.1,0.3c-0.1,0.1-0.1,0.2-0.2,0.3
			c-0.1,0.1-0.2,0.2-0.4,0.3c-0.2,0.2-0.5,0.3-0.7,0.4c-0.3,0.1-0.6,0.2-1,0.3c-0.4,0.1-0.8,0.1-1.2,0.2c-0.4,0-0.8,0.1-1.2,0.1
			h-0.1c-0.2,0-0.3-0.1-0.4-0.2C-362.1,263-362.2,262.9-362.2,262.8z M-358.2,254.5l-1,1l-1-1l1-1L-358.2,254.5z M-359,257.7
			c-0.1,0-0.1,0-0.2,0.1c-0.1,0.1-0.2,0.2-0.2,0.2c-0.1,0.1-0.2,0.3-0.2,0.4c-0.1,0.2-0.1,0.4-0.2,0.5c-0.1,0.2,0,0.5,0.1,0.7
			c0.1,0.1,0.2,0.2,0.3,0.2c0.2,0.1,0.4,0.1,0.6,0.1c0.2,0,0.4,0,0.6,0c0.2,0,0.3,0,0.5,0c0-0.4-0.1-0.8-0.2-1.1
			c-0.1-0.3-0.3-0.6-0.5-0.9c-0.1-0.1-0.2-0.2-0.2-0.2C-358.8,257.8-358.9,257.7-359,257.7L-359,257.7z"/>
		<path id="Path_23559" class="st0" d="M-352.1,263.3c-0.4,0-0.8,0-1.1-0.2c-0.3-0.1-0.6-0.3-0.8-0.5c-0.1-0.1-0.2-0.3-0.3-0.4
			c-0.1-0.1-0.1-0.3-0.2-0.5c0-0.1-0.1-0.3-0.1-0.4v-3.1c0-0.3,0-0.7,0-1.1c0-0.4,0-0.7,0-1.1c0-0.3,0-0.7-0.1-1
			c0-0.2-0.1-0.5-0.1-0.7l1.2-0.2c0,0.2,0.1,0.5,0.1,0.7c0,0.3,0.1,0.6,0.1,1c0,0.3,0,0.7,0,1.1s0,0.7,0,1.1v2.9c0,0.2,0,0.3,0,0.5
			c0,0.1,0.1,0.2,0.2,0.3c0.3,0.2,0.7,0.3,1,0.3h0.1c0.1,0,0.2,0,0.2,0.1c0.1,0.1,0.3,0.2,0.3,0.3c0,0.1,0.1,0.1,0.1,0.2
			c0,0.2-0.1,0.3-0.2,0.4C-351.7,263.3-351.9,263.4-352.1,263.3L-352.1,263.3z"/>
		<path id="Path_23560" class="st0" d="M-353,262.7c0-0.3,0.3-0.6,0.6-0.6c0,0,0,0,0,0h1.1c0.2,0,0.3,0,0.5,0c0.2,0,0.3,0,0.5-0.1
			c0.2,0,0.3-0.1,0.4-0.1c0.1-0.1,0.3-0.1,0.4-0.2c0.1-0.1,0.2-0.2,0.2-0.3c0.1-0.2,0.1-0.5,0.1-0.7c0-0.4-0.1-0.8-0.2-1.1
			c0-0.1-0.1-0.3-0.2-0.4s-0.1-0.3-0.2-0.4c-0.1-0.2-0.1-0.3-0.2-0.5l1.1-0.5l0.1,0.1c0,0.1,0.1,0.2,0.1,0.3
			c0.1,0.1,0.1,0.3,0.2,0.5c0.1,0.2,0.1,0.4,0.2,0.6c0.4,0.9,0.4,1.8,0.1,2.7c-0.3,0.6-0.8,1.1-1.5,1.3c-0.1,0-0.3,0.1-0.4,0.1
			c-0.2,0-0.3,0-0.5,0c-0.2,0-0.3,0-0.5,0h-1.3c-0.2,0-0.3-0.1-0.4-0.2C-352.9,263-353,262.9-353,262.7L-353,262.7z M-350.1,265.4
			l-1,1l-1-1l1-1L-350.1,265.4z M-347.6,265.4l-1,1l-1-1l1-1L-347.6,265.4z"/>
		<path id="Path_23561" class="st0" d="M-343.9,259.4c0.1,0.4,0.2,0.7,0.3,1.1c0,0.2,0.1,0.3,0.1,0.5c0,0.2,0.1,0.3,0.1,0.5
			c0,0.2,0.1,0.3,0.1,0.5c0,0.1,0,0.3,0.1,0.4c0,0.1,0,0.1,0,0.2v0.2c0,0.3-0.1,0.7-0.2,1c-0.1,0.3-0.2,0.6-0.4,0.9
			c-0.2,0.3-0.4,0.6-0.7,0.9c-0.3,0.3-0.5,0.5-0.8,0.8c-0.3,0.2-0.6,0.5-0.9,0.7c-0.3,0.2-0.7,0.4-1,0.6l-0.5-1.1
			c0.4-0.2,0.8-0.5,1.2-0.7c0.4-0.3,0.7-0.6,1.1-0.9c0.3-0.3,0.5-0.7,0.7-1c0.2-0.3,0.3-0.7,0.3-1.1v-0.1c0,0,0-0.1,0-0.1
			c0-0.1,0-0.3-0.1-0.4c0-0.2-0.1-0.3-0.1-0.5l-0.1-0.5c0-0.2-0.1-0.3-0.1-0.4c-0.1-0.3-0.2-0.7-0.3-1L-343.9,259.4z"/>
		<path id="Path_23562" class="st0" d="M-339.1,263.3c-0.2,0-0.5,0-0.7-0.1c-0.3-0.1-0.5-0.1-0.8-0.2c-0.2-0.1-0.5-0.1-0.7-0.2
			c-0.2-0.1-0.3-0.2-0.5-0.3l0.5-1.1c0.2,0.1,0.4,0.2,0.5,0.3c0.2,0.1,0.4,0.2,0.7,0.2c0.2,0.1,0.5,0.1,0.7,0.2c0.2,0,0.5,0,0.7,0
			c0.2,0,0.4-0.1,0.7-0.2c0.2-0.1,0.4-0.2,0.5-0.4c0.1-0.1,0.1-0.4,0-0.7c0-0.2-0.1-0.4-0.2-0.6c-0.1-0.2-0.2-0.4-0.4-0.7
			c-0.1-0.2-0.3-0.4-0.5-0.6c-0.2-0.2-0.3-0.4-0.5-0.6c-0.2-0.2-0.4-0.3-0.6-0.5c-0.2-0.1-0.4-0.2-0.6-0.3l0.5-1.1
			c0.2,0.1,0.5,0.3,0.7,0.4c0.2,0.2,0.5,0.4,0.7,0.6c0.2,0.2,0.4,0.5,0.7,0.7c0.2,0.2,0.4,0.5,0.6,0.8c0.2,0.3,0.3,0.5,0.4,0.8
			c0.1,0.3,0.2,0.5,0.3,0.8c0.1,0.2,0.1,0.4,0.1,0.6c0,0.2,0,0.3-0.1,0.5c0,0.1-0.1,0.2-0.1,0.4c0,0.1-0.1,0.2-0.2,0.3
			c-0.4,0.5-0.9,0.8-1.6,0.9c-0.2,0-0.3,0.1-0.5,0.1C-338.8,263.3-339,263.3-339.1,263.3L-339.1,263.3z"/>
	</g>
	<g id="XMLID_21_" transform="translate(69.601 33.967)">
		<g id="XMLID_22_">
			<path id="XMLID_26_" class="st0" d="M-377.6,269.4c0.5,0,1-0.2,1.4-0.6c0.1-0.1,0.2-0.2,0.3-0.4c0.1,0.1,0.2,0.3,0.3,0.4
				c0.4,0.4,0.8,0.6,1.4,0.6c0.5,0,1-0.2,1.4-0.6c0.8-0.8,0.8-2,0-2.7c-0.8-0.8-2-0.8-2.7,0l0,0c-0.1,0.1-0.2,0.2-0.3,0.4
				c-0.1-0.1-0.2-0.3-0.3-0.4c-0.4-0.4-0.9-0.6-1.4-0.6c-0.5,0-1,0.2-1.4,0.6c-0.4,0.4-0.6,0.8-0.6,1.4
				C-379.6,268.5-378.7,269.4-377.6,269.4C-377.7,269.4-377.7,269.4-377.6,269.4L-377.6,269.4z"/>
			<path id="XMLID_25_" class="st0" d="M-338.3,266.1c-0.4,0-0.9,0.2-1.1,0.5c-0.3,0.3-0.5,0.7-0.5,1.2c0,0.5,0.1,1,0.2,1.5
				c0.1,0.5,0.2,1,0.2,1.5c0,1.2-0.8,1.8-2.5,1.8h-2c-1.6-0.1-3.2-0.8-4.3-2c-1.6-1.6-2.6-2.6-3.2-3.2c-2-1.9-3.6-3.4-5-4.5
				c-0.2-0.1-0.3-0.4-0.3-0.6c0-0.2,0.2-0.5,0.4-0.5c2.9-1.1,5.9-2,9-2.7c1-0.2,1.5-0.7,1.5-1.6c0-1.1-0.6-1.6-1.9-1.6
				c-0.3,0-0.5,0-0.8,0.1c-3.6,0.7-7,1.9-10.3,3.6c-1.4,1.1-1.8,2.9-1.1,4.5c1.1,1.4,2.3,2.7,3.8,3.8c1.9,1.6,2.8,2.7,2.8,3.3
				c0,0.8-0.8,1.2-2.4,1.4c-0.3,0-1.6,0-3.9,0h-1c-1.5,0-2.4-0.6-2.6-1.8c-0.1-0.7-0.2-1.1-0.2-1.3c-0.2-0.5-0.7-0.8-1.2-0.7
				c-0.5,0-0.9,0.3-1.2,1c-0.3,0.7-0.6,1.3-0.9,1.9c-1,1.3-3.6,1.9-7.9,1.9h-2.1c-2.9,0-4.9-0.3-6-1c-0.7-0.5-1.1-1.3-1.1-2.1
				c0-0.4,0.1-0.8,0.2-1.2c0.1-0.4,0.2-0.8,0.2-1.2c0.1-0.6-0.3-1.1-0.9-1.2c-0.1,0-0.2,0-0.3,0c-0.8,0-1.4,0.7-1.8,2
				c-0.3,1-0.4,1.9-0.4,2.9c0,3.9,3.3,5.9,10,5.9c6.4,0,10.4-1,11.9-3c0.7,1.4,1.9,2.1,3.8,2.1h1.2c2.1,0.1,4.1-0.1,6.1-0.5
				c1.7-0.4,3-1.7,3.4-3.4c1.9,2.6,4.2,4,7,4h1.5c1.6,0.1,3.2-0.5,4.4-1.6c1.1-1.2,1.7-2.8,1.6-4.5
				C-336.1,267.5-336.8,266.1-338.3,266.1L-338.3,266.1z"/>
			<path id="XMLID_24_" class="st0" d="M-341,278.6c-0.5,0-1,0.2-1.4,0.6c-0.2,0.2-0.4,0.5-0.5,0.8c-0.1-0.3-0.3-0.6-0.5-0.8
				c-0.4-0.4-0.8-0.6-1.4-0.6c-0.5,0-1,0.2-1.4,0.6c-0.4,0.4-0.6,0.8-0.6,1.4c0,1.1,0.9,2,2,2c0.5,0,1-0.2,1.4-0.6
				c-0.2-0.3-0.1-0.6,0.2-0.8c0.3-0.2,0.6-0.1,0.8,0.2c0.1,0.2,0.1,0.4,0,0.6c0.4,0.4,0.8,0.6,1.4,0.6c1.1,0,2-0.9,2-2
				c0-0.5-0.2-1-0.6-1.4C-340.1,278.8-340.5,278.6-341,278.6L-341,278.6z"/>
			<path id="XMLID_23_" class="st0" d="M-317.3,268.9c-0.6-1.1-1.8-1.7-3-1.6c-1.3,0.1-2.4,0.7-3.2,1.7c-0.2,0.2-0.7,1-1.6,2.2
				c-0.3,0.5-0.7,0.8-1.1,1.1c-0.5,0.2-1,0.3-1.5,0.3h-0.4c-1.8,0-2.6-1.1-2.6-3.3v-11.4c0-1.5-0.6-2.3-1.7-2.3
				c-0.5,0-1.1,0.3-1.3,0.7c-0.3,0.5-0.4,1-0.4,1.5l0.4,10.8c0,1.9,0.2,3.7,0.8,5.5c0.7,1.6,2.2,2.4,4.5,2.4h1.2
				c1.2,0,2.3-0.4,3.2-1.3c0.9,1.1,2.3,1.8,3.8,1.7c1.2,0,2.2-0.5,2.9-1.5c0.7-0.9,1-2,1-3.2C-316.4,271.1-316.7,269.9-317.3,268.9
				L-317.3,268.9z M-320.4,273.7c-0.4,0-0.8-0.1-1.2-0.3c-0.5-0.3-0.8-0.6-0.8-0.9c0-0.5,0.3-0.9,0.7-1.2c0.3-0.3,0.8-0.6,1.3-0.6
				c0.4,0,0.8,0.2,1.1,0.6c0.2,0.4,0.3,0.8,0.3,1.2C-319.1,273.2-319.5,273.7-320.4,273.7L-320.4,273.7z"/>
		</g>
	</g>
	<g id="XMLID_15_" transform="translate(29.603 30.191)">
		<g id="XMLID_16_">
			<ellipse id="XMLID_20_" class="st1" cx="-369.8" cy="274.8" rx="17.8" ry="17.8"/>
			<g id="XMLID_17_" transform="translate(6.344 9.317)">
				<path id="XMLID_19_" class="st0" d="M-365.2,263.4c-0.2-3.5-3.1-6.2-6.6-6c-1.7,0.1-3.3,0.9-4.5,2.1c-2.3-2.6-6.3-2.9-9-0.6
					c-1.2,1.1-2,2.6-2.1,4.3c0,0.1,0,0.2,0,0.2v7.2c0,0.9,0.7,1.6,1.6,1.6h0c0.9,0,1.6-0.7,1.6-1.6v-6.9c0-1.7,1.4-3.1,3.1-3.1
					c1.7,0,3.1,1.4,3.1,3.1c0,0,0,0,0,0v5.9c0,0.9,0.7,1.6,1.6,1.6h0c0.9,0,1.6-0.7,1.6-1.6v-5.9c0-1.7,1.4-3.1,3.1-3.1
					c1.7,0,3.1,1.4,3.1,3.1c0,0,0,0,0,0v6.9c0,0.9,0.7,1.6,1.6,1.6c0,0,0,0,0,0h0c0.9,0,1.6-0.7,1.6-1.6c0,0,0,0,0,0v-7.1
					C-365.2,263.5-365.2,263.4-365.2,263.4z"/>
				<path id="XMLID_18_" class="st0" d="M-371.2,272.8c-0.1-0.1-0.3,0.1-0.3,0.1c-2.7,2.1-6.5,2.1-9.2,0c0,0-0.2-0.2-0.3-0.1
					c-0.1,0.1,0,0.4,0,0.4c2.1,2.7,6,3.1,8.7,1c0.4-0.3,0.7-0.6,1-1C-371.2,273.1-371.2,272.9-371.2,272.8L-371.2,272.8z"/>
			</g>
		</g>
	</g>
</g>
</svg>
