<?xml version="1.0" encoding="utf-8"?>
<!-- Generator: Adobe Illustrator 19.0.0, SVG Export Plug-In . SVG Version: 6.00 Build 0)  -->
<svg version="1.1" id="OL" xmlns="http://www.w3.org/2000/svg" xmlns:xlink="http://www.w3.org/1999/xlink" x="0px" y="0px"
	 viewBox="-412 261 135 40" style="enable-background:new -412 261 135 40;" xml:space="preserve">
<style type="text/css">
	.st0{fill:#FFFFFF;}
	.st1{fill:#535E64;}
	.st2{fill:#2F3332;}
</style>
<path d="M-407,261h125c2.8,0,5,2.2,5,5v30c0,2.8-2.2,5-5,5h-125c-2.8,0-5-2.2-5-5v-30C-412,263.2-409.8,261-407,261z"/>
<g>
	<path class="st0" d="M-315.6,284c-0.8,0.1-1.6-0.1-2.3-0.5c-0.4,0.4-0.9,0.5-1.4,0.5h-7.7c-0.6,0-1.1-0.3-1.5-0.8
		c-0.4-0.5-0.6-1-0.5-1.6v-2.1h1.5v2c0,0.3,0,0.6,0.3,0.9c0.3,0.3,0.5,0.3,0.9,0.3h6.7c0.3,0,0.6,0,0.9-0.3c0.1-0.3,0.3-0.5,0.3-0.9
		v-2h1.5v2c0,0.8,0.5,1.1,1.6,1.1L-315.6,284z M-323.5,277c0,0.3-0.1,0.5-0.3,0.6c-0.1,0.1-0.4,0.3-0.6,0.3c-0.8,0-1-0.3-1-0.9
		c0-0.5,0.4-0.8,0.9-0.8S-323.5,276.5-323.5,277z M-320.8,277c0,0.3-0.1,0.5-0.3,0.6c-0.1,0.1-0.4,0.3-0.6,0.3c-0.6,0-1-0.3-1-0.9
		c0-0.5,0.3-0.8,0.9-0.8C-321.1,276.2-320.8,276.5-320.8,277z"/>
	<path class="st0" d="M-309.4,281.8c0,0.6-0.3,1.3-0.6,1.6c-0.5,0.4-1,0.6-1.6,0.6h-4.3v-1.5h4.4c0.5,0,0.8-0.4,0.8-1.1
		c-0.8,0-1.6,0-2.5-0.1c-0.8-0.3-1.3-1.1-1.3-2c0-0.6,0.3-1.3,0.6-1.6c0.5-0.4,1.1-0.6,1.8-0.6c0.5,0,1.1,0.1,1.6,0.5
		c0.8,0.5,1.3,1.5,1.3,2.4L-309.4,281.8z M-311.1,280.1c0-1.1-0.5-1.6-1.4-1.6s-0.9,0.3-0.9,0.8s0.1,0.6,0.4,0.8c0.3,0,0.6,0,0.9,0
		L-311.1,280.1z M-311.3,275.2c0,0.3-0.1,0.5-0.3,0.8c-0.1,0.3-0.5,0.3-0.8,0.3c-0.8,0-1-0.4-1-1c0-0.6,0.4-0.9,1-0.9
		C-311.7,274.3-311.3,274.6-311.3,275.2z"/>
	<path class="st0" d="M-304.5,284c-0.9,0.1-1.9-0.1-2.6-0.8c-0.4-0.4-0.5-0.9-0.5-1.5V275h1.5v6.2c0,0.6,0.1,1.1,0.4,1.3
		c0.4,0.1,0.9,0.3,1.3,0.1V284z"/>
	<path class="st0" d="M-299.9,281.6c0,0.6-0.1,1.1-0.5,1.6c-0.4,0.5-0.9,0.8-1.5,0.8h-3.1v-1.5h2.6c0.3,0,0.6,0,0.9-0.3
		c0.1-0.3,0.3-0.5,0.3-0.9v-2h1.4L-299.9,281.6L-299.9,281.6z M-302.9,286.8c0,0.3-0.1,0.5-0.3,0.6c-0.1,0.1-0.4,0.3-0.6,0.3
		c-0.3,0-0.5-0.1-0.6-0.3c-0.3-0.1-0.4-0.4-0.4-0.6c0-0.5,0.3-0.8,0.9-0.8C-303.3,285.9-302.9,286.2-302.9,286.8z M-300.1,286.8
		c0,0.3-0.1,0.5-0.3,0.6c-0.1,0.1-0.4,0.3-0.6,0.3c-0.3,0-0.5-0.1-0.6-0.3c-0.3-0.1-0.4-0.4-0.4-0.6c0-0.5,0.3-0.8,0.9-0.8
		S-300.1,286.2-300.1,286.8z"/>
	<path class="st0" d="M-293.2,283.8c0,1-0.4,2-1,2.8c-0.6,0.8-1.6,1.1-2.6,1.1h-1.9l-0.3-1.5h1.6c0.6,0,1.4-0.1,1.9-0.5
		c0.5-0.4,0.9-0.9,0.9-1.6v-4.7h1.5L-293.2,283.8z"/>
	<path class="st0" d="M-284.8,282.1c0,0.5-0.3,1.1-0.6,1.4c-0.4,0.4-1,0.5-1.5,0.5h-4.5l-0.1-1.5h4.5c0.5,0,0.8-0.1,0.8-0.5
		c0-0.3-0.1-0.4-0.3-0.5l-3.3-3.4l1-1l3.3,3.4C-285,280.9-284.8,281.5-284.8,282.1z"/>
</g>
<g>
	<g>
		<path class="st1" d="M-355.2,270.1c-0.5,1.1-0.9,2.3-1.4,3.4c-2.4,6-4.9,12.1-7.3,18.1c-0.1,0.2-0.2,0.2-0.4,0.2
			c-1.7,0-3.5,0-5.2,0c-0.2,0-0.3-0.1-0.3-0.2c-1.3-4-2.5-8-3.8-12.1c0-0.1,0-0.2-0.1-0.3c-0.2,0.7-0.5,1.4-0.7,2.1
			c-1.1,3.4-2.2,6.8-3.3,10.2c-0.1,0.2-0.1,0.3-0.3,0.3c-1.7,0-3.5,0-5.2,0c-0.2,0-0.2,0-0.3-0.2c-0.9-1.6-1.8-3.2-2.8-4.8
			c-0.1-0.1-0.1-0.2,0-0.3c0.9-2.9,1.9-5.7,2.8-8.6c0-0.1,0-0.1,0.1-0.2c1.1,2.1,2.1,4.2,3.2,6.3c0.1,0,0.1-0.1,0.1-0.1
			c1.5-4.6,3-9.1,4.5-13.7c0-0.1,0-0.1,0-0.2c1.5,0,3,0,4.5,0c0.1,0.1,0.1,0.2,0.2,0.3c0.6,2,1.2,4,1.8,6.1c0.5,1.5,0.9,3,1.4,4.6
			c0.3,0.9,0.6,1.9,0.8,2.8c0,0.1,0,0.1,0.1,0.2c0.2-0.4,0.4-0.8,0.5-1.2c1.5-3.6,3.1-7.2,4.6-10.8c0.2-0.5,0.5-1.1,0.7-1.6
			c0-0.1,0.1-0.2,0.1-0.2C-359.1,270.1-357.1,270.1-355.2,270.1z"/>
		<path class="st2" d="M-351.7,270.1c2.7,7.3,5.5,14.5,8.2,21.8c-0.8,0-1.6,0-2.3,0c-1.2,0-2.3,0-3.5,0c-0.2,0-0.2,0-0.3-0.2
			c-0.4-1.2-0.8-2.3-1.2-3.5c-0.1-0.2-0.1-0.2-0.3-0.2c-2.4,0-4.9,0-7.3,0c-0.1,0-0.2,0-0.3,0c0.3-0.6,0.5-1.2,0.7-1.9
			c0.3-0.7,0.6-1.4,0.8-2.1c0.1-0.2,0.2-0.2,0.3-0.2c1.4,0,2.9,0,4.3,0c0.2,0,0.2,0,0.2-0.2c-0.7-2-1.4-3.9-2.1-5.9
			c-0.1-0.2-0.1-0.3,0-0.5C-353.6,274.8-352.6,272.5-351.7,270.1z"/>
		<path class="st2" d="M-386,272.9c-1.1-1.6-2.7-2.4-4.5-2.7c-0.3-0.1-0.6,0-0.9-0.1c-0.1,0-0.1,0-0.1,0c0,0-0.1,0-0.1,0
			c-0.1,0-0.1,0-0.2,0c-0.1,0-0.3,0-0.4,0c-3,0-5.9,0-8.9,0c-0.2,0-0.2,0-0.2,0.2c0,7.2,0,14.4,0,21.6c1.7,0,3.4,0,5.2,0
			c0.3,0,0.3,0,0.3-0.4c0-2.3,0-4.6,0-6.9c0-0.2,0-0.2,0.2-0.2c1.1,0,2.2,0,3.3,0c0.9,0,1.8-0.1,2.7-0.3c0.2,0,0.3-0.1,0.3-0.3
			c1.1-3.4,2.2-6.9,3.3-10.3C-385.8,273.3-385.8,273.1-386,272.9z M-390.5,278.4c-0.3,1-1,1.5-2,1.7c-0.4,0.1-0.9,0.1-1.3,0.1
			c-0.6,0-1.2,0-1.8,0c-0.2,0-0.2,0-0.2-0.2c0-0.9,0-1.8,0-2.7c0-0.9,0-1.8,0-2.7c0-0.1,0-0.2,0.1-0.2c1,0,1.9,0,2.9,0.1
			c1.6,0.2,2.5,1.1,2.5,2.7C-390.3,277.6-390.3,278-390.5,278.4z"/>
	</g>
</g>
</svg>
