<?xml version="1.0" encoding="utf-8"?>
<!-- Generator: Adobe Illustrator 19.0.0, SVG Export Plug-In . SVG Version: 6.00 Build 0)  -->
<svg version="1.1" id="OL" xmlns="http://www.w3.org/2000/svg" xmlns:xlink="http://www.w3.org/1999/xlink" x="0px" y="0px"
	 viewBox="-412 261 135 40" style="enable-background:new -412 261 135 40;" xml:space="preserve">
<style type="text/css">
	.st0{fill:#FFFFFF;}
	.st1{fill:#CED4DA;}
</style>
<path d="M-407,261h125c2.8,0,5,2.2,5,5v30c0,2.8-2.2,5-5,5h-125c-2.8,0-5-2.2-5-5v-30C-412,263.2-409.8,261-407,261z"/>
<g>
	<path class="st0" d="M-317.9,284c-0.8,0.1-1.6-0.1-2.3-0.5c-0.4,0.4-0.9,0.5-1.4,0.5h-7.7c-0.6,0-1.1-0.3-1.5-0.8s-0.6-1-0.5-1.6
		v-2.1h1.5v2c0,0.3,0,0.6,0.3,0.9s0.5,0.3,0.9,0.3h6.7c0.3,0,0.6,0,0.9-0.3c0.1-0.3,0.3-0.5,0.3-0.9v-2h1.5v2c0,0.8,0.5,1.1,1.6,1.1
		L-317.9,284z M-325.8,277c0,0.3-0.1,0.5-0.3,0.6c-0.1,0.1-0.4,0.3-0.6,0.3c-0.8,0-1-0.3-1-0.9c0-0.5,0.4-0.8,0.9-0.8
		S-325.8,276.5-325.8,277z M-323.1,277c0,0.3-0.1,0.5-0.3,0.6c-0.1,0.1-0.4,0.3-0.6,0.3c-0.6,0-1-0.3-1-0.9c0-0.5,0.3-0.8,0.9-0.8
		C-323.4,276.2-323.1,276.5-323.1,277z"/>
	<path class="st0" d="M-311.7,281.8c0,0.6-0.3,1.3-0.6,1.6c-0.5,0.4-1,0.6-1.6,0.6h-4.3v-1.5h4.4c0.5,0,0.8-0.4,0.8-1.1
		c-0.8,0-1.6,0-2.5-0.1c-0.8-0.3-1.3-1.1-1.3-2c0-0.6,0.3-1.3,0.6-1.6c0.5-0.4,1.1-0.6,1.8-0.6c0.5,0,1.1,0.1,1.6,0.5
		c0.8,0.5,1.3,1.5,1.3,2.4L-311.7,281.8z M-313.4,280.1c0-1.1-0.5-1.6-1.4-1.6s-0.9,0.3-0.9,0.8s0.1,0.6,0.4,0.8c0.3,0,0.6,0,0.9,0
		L-313.4,280.1z M-313.6,275.2c0,0.3-0.1,0.5-0.3,0.8c-0.1,0.3-0.5,0.3-0.8,0.3c-0.8,0-1-0.4-1-1s0.4-0.9,1-0.9
		C-314,274.3-313.6,274.6-313.6,275.2z"/>
	<path class="st0" d="M-306.8,284c-0.9,0.1-1.9-0.1-2.6-0.8c-0.4-0.4-0.5-0.9-0.5-1.5V275h1.5v6.2c0,0.6,0.1,1.1,0.4,1.3
		c0.4,0.1,0.9,0.3,1.3,0.1L-306.8,284L-306.8,284z"/>
	<path class="st0" d="M-302.2,281.6c0,0.6-0.1,1.1-0.5,1.6s-0.9,0.8-1.5,0.8h-3.1v-1.5h2.6c0.3,0,0.6,0,0.9-0.3
		c0.1-0.3,0.3-0.5,0.3-0.9v-2h1.4L-302.2,281.6L-302.2,281.6z M-305.2,286.8c0,0.3-0.1,0.5-0.3,0.6c-0.1,0.1-0.4,0.3-0.6,0.3
		c-0.3,0-0.5-0.1-0.6-0.3c-0.3-0.1-0.4-0.4-0.4-0.6c0-0.5,0.3-0.8,0.9-0.8C-305.6,285.9-305.2,286.2-305.2,286.8z M-302.4,286.8
		c0,0.3-0.1,0.5-0.3,0.6c-0.1,0.1-0.4,0.3-0.6,0.3c-0.3,0-0.5-0.1-0.6-0.3c-0.3-0.1-0.4-0.4-0.4-0.6c0-0.5,0.3-0.8,0.9-0.8
		S-302.4,286.2-302.4,286.8z"/>
	<path class="st0" d="M-295.5,283.8c0,1-0.4,2-1,2.8s-1.6,1.1-2.6,1.1h-1.9l-0.3-1.5h1.6c0.6,0,1.4-0.1,1.9-0.5s0.9-0.9,0.9-1.6
		v-4.7h1.5L-295.5,283.8z"/>
	<path class="st0" d="M-287.1,282.1c0,0.5-0.3,1.1-0.6,1.4c-0.4,0.4-1,0.5-1.5,0.5h-4.5l-0.1-1.5h4.5c0.5,0,0.8-0.1,0.8-0.5
		c0-0.3-0.1-0.4-0.3-0.5l-3.3-3.4l1-1l3.3,3.4C-287.3,280.9-287.1,281.5-287.1,282.1z"/>
</g>
<g>
	<path class="st1" d="M-388.2,280h-10.2v-10.2h10.2V280z"/>
	<path class="st1" d="M-376.9,280h-10.2v-10.2h10.2V280L-376.9,280z"/>
	<path class="st1" d="M-388.2,291.3h-10.2v-10.2h10.2V291.3z"/>
	<path class="st1" d="M-376.9,291.3h-10.2v-10.2h10.2V291.3L-376.9,291.3z"/>
</g>
<g>
	<path class="st1" d="M-363.4,277.2l-1.7,6.2h-1.2l-1.2-4.3c0-0.2-0.1-0.4-0.1-0.6h0c0,0.2,0,0.4-0.1,0.6l-1.2,4.3h-1.2l-1.7-6.2
		h1.1l1.1,4.5c0,0.2,0.1,0.4,0.1,0.6h0c0-0.1,0.1-0.3,0.1-0.6l1.3-4.5h1.1l1.2,4.5c0,0.2,0.1,0.3,0.1,0.5h0c0-0.1,0-0.3,0.1-0.6
		l1.1-4.5H-363.4z"/>
	<path class="st1" d="M-362.2,278.1c-0.2,0-0.3-0.1-0.4-0.2c-0.1-0.1-0.2-0.2-0.2-0.4s0.1-0.3,0.2-0.4c0.1-0.1,0.3-0.2,0.4-0.2
		c0.2,0,0.3,0.1,0.4,0.2c0.1,0.1,0.2,0.2,0.2,0.4c0,0.2-0.1,0.3-0.2,0.4C-361.9,278-362,278.1-362.2,278.1z M-361.7,283.4h-1V279h1
		V283.4z"/>
	<path class="st1" d="M-356.5,283.4h-1v-2.5c0-0.8-0.3-1.2-0.9-1.2c-0.3,0-0.6,0.1-0.8,0.3c-0.2,0.2-0.3,0.5-0.3,0.9v2.5h-1V279h1
		v0.7h0c0.3-0.6,0.8-0.8,1.4-0.8c0.5,0,0.8,0.2,1.1,0.5s0.4,0.8,0.4,1.3V283.4z"/>
	<path class="st1" d="M-351.3,283.4h-1v-0.7h0c-0.3,0.6-0.8,0.9-1.5,0.9c-0.5,0-1-0.2-1.3-0.6c-0.3-0.4-0.5-0.9-0.5-1.6
		c0-0.7,0.2-1.3,0.5-1.7c0.4-0.4,0.8-0.7,1.4-0.7c0.6,0,1,0.2,1.3,0.7h0v-2.7h1V283.4z M-352.2,281.4v-0.6c0-0.3-0.1-0.6-0.3-0.8
		c-0.2-0.2-0.5-0.3-0.8-0.3c-0.4,0-0.7,0.1-0.9,0.4c-0.2,0.3-0.3,0.7-0.3,1.2c0,0.4,0.1,0.8,0.3,1.1c0.2,0.3,0.5,0.4,0.8,0.4
		c0.3,0,0.6-0.1,0.8-0.4C-352.4,282.1-352.2,281.8-352.2,281.4z"/>
	<path class="st1" d="M-348,283.5c-0.7,0-1.2-0.2-1.6-0.6c-0.4-0.4-0.6-1-0.6-1.6c0-0.7,0.2-1.3,0.6-1.7c0.4-0.4,1-0.6,1.7-0.6
		c0.7,0,1.2,0.2,1.6,0.6c0.4,0.4,0.6,1,0.6,1.7c0,0.7-0.2,1.3-0.6,1.7C-346.8,283.3-347.3,283.5-348,283.5z M-348,279.7
		c-0.4,0-0.7,0.1-0.9,0.4s-0.3,0.6-0.3,1.1c0,0.5,0.1,0.8,0.3,1.1s0.5,0.4,0.9,0.4c0.4,0,0.7-0.1,0.9-0.4c0.2-0.3,0.3-0.6,0.3-1.1
		c0-0.5-0.1-0.9-0.3-1.1S-347.6,279.7-348,279.7z"/>
	<path class="st1" d="M-338.8,279l-1.3,4.4h-1l-0.8-3c0-0.1-0.1-0.2-0.1-0.4h0c0,0.1,0,0.2-0.1,0.4l-0.9,3h-1l-1.3-4.4h1l0.8,3.2
		c0,0.1,0,0.2,0.1,0.4h0c0-0.1,0-0.3,0.1-0.4l0.9-3.2h0.9l0.8,3.2c0,0.1,0,0.2,0.1,0.4h0c0-0.1,0-0.2,0.1-0.4l0.8-3.2H-338.8z"/>
	<path class="st1" d="M-338.3,283.3v-0.9c0.4,0.3,0.8,0.4,1.2,0.4c0.6,0,0.9-0.2,0.9-0.5c0-0.1,0-0.2-0.1-0.3
		c-0.1-0.1-0.1-0.1-0.2-0.2c-0.1-0.1-0.2-0.1-0.3-0.1c-0.1,0-0.3-0.1-0.4-0.1c-0.2-0.1-0.3-0.1-0.5-0.2s-0.3-0.2-0.4-0.3
		c-0.1-0.1-0.2-0.2-0.2-0.3c0-0.1-0.1-0.3-0.1-0.5c0-0.2,0-0.4,0.2-0.6c0.1-0.2,0.2-0.3,0.4-0.4c0.2-0.1,0.4-0.2,0.6-0.2
		c0.2-0.1,0.4-0.1,0.7-0.1c0.4,0,0.8,0.1,1.1,0.2v0.9c-0.3-0.2-0.7-0.3-1.1-0.3c-0.1,0-0.2,0-0.3,0s-0.2,0.1-0.3,0.1
		c-0.1,0-0.1,0.1-0.2,0.2s-0.1,0.1-0.1,0.2c0,0.1,0,0.2,0.1,0.2s0.1,0.1,0.2,0.2c0.1,0,0.2,0.1,0.3,0.1c0.1,0,0.2,0.1,0.4,0.1
		c0.2,0.1,0.4,0.2,0.5,0.2c0.1,0.1,0.3,0.2,0.4,0.3s0.2,0.2,0.2,0.4c0.1,0.1,0.1,0.3,0.1,0.5c0,0.2-0.1,0.4-0.2,0.6
		c-0.1,0.2-0.2,0.3-0.4,0.4c-0.2,0.1-0.4,0.2-0.6,0.2s-0.5,0.1-0.7,0.1C-337.6,283.5-338,283.4-338.3,283.3z"/>
</g>
<g>
	<path class="st1" d="M-363.4,277.2l-1.7,6.2h-1.2l-1.2-4.3c0-0.2-0.1-0.4-0.1-0.6h0c0,0.2,0,0.4-0.1,0.6l-1.2,4.3h-1.2l-1.7-6.2
		h1.1l1.1,4.5c0,0.2,0.1,0.4,0.1,0.6h0c0-0.1,0.1-0.3,0.1-0.6l1.3-4.5h1.1l1.2,4.5c0,0.2,0.1,0.3,0.1,0.5h0c0-0.1,0-0.3,0.1-0.6
		l1.1-4.5H-363.4z"/>
	<path class="st1" d="M-362.2,278.1c-0.2,0-0.3-0.1-0.4-0.2c-0.1-0.1-0.2-0.2-0.2-0.4s0.1-0.3,0.2-0.4c0.1-0.1,0.3-0.2,0.4-0.2
		c0.2,0,0.3,0.1,0.4,0.2c0.1,0.1,0.2,0.2,0.2,0.4c0,0.2-0.1,0.3-0.2,0.4C-361.9,278-362,278.1-362.2,278.1z M-361.7,283.4h-1V279h1
		V283.4z"/>
	<path class="st1" d="M-356.5,283.4h-1v-2.5c0-0.8-0.3-1.2-0.9-1.2c-0.3,0-0.6,0.1-0.8,0.3c-0.2,0.2-0.3,0.5-0.3,0.9v2.5h-1V279h1
		v0.7h0c0.3-0.6,0.8-0.8,1.4-0.8c0.5,0,0.8,0.2,1.1,0.5s0.4,0.8,0.4,1.3V283.4z"/>
	<path class="st1" d="M-351.3,283.4h-1v-0.7h0c-0.3,0.6-0.8,0.9-1.5,0.9c-0.5,0-1-0.2-1.3-0.6c-0.3-0.4-0.5-0.9-0.5-1.6
		c0-0.7,0.2-1.3,0.5-1.7c0.4-0.4,0.8-0.7,1.4-0.7c0.6,0,1,0.2,1.3,0.7h0v-2.7h1V283.4z M-352.2,281.4v-0.6c0-0.3-0.1-0.6-0.3-0.8
		c-0.2-0.2-0.5-0.3-0.8-0.3c-0.4,0-0.7,0.1-0.9,0.4c-0.2,0.3-0.3,0.7-0.3,1.2c0,0.4,0.1,0.8,0.3,1.1c0.2,0.3,0.5,0.4,0.8,0.4
		c0.3,0,0.6-0.1,0.8-0.4C-352.4,282.1-352.2,281.8-352.2,281.4z"/>
	<path class="st1" d="M-348,283.5c-0.7,0-1.2-0.2-1.6-0.6c-0.4-0.4-0.6-1-0.6-1.6c0-0.7,0.2-1.3,0.6-1.7c0.4-0.4,1-0.6,1.7-0.6
		c0.7,0,1.2,0.2,1.6,0.6c0.4,0.4,0.6,1,0.6,1.7c0,0.7-0.2,1.3-0.6,1.7C-346.8,283.3-347.3,283.5-348,283.5z M-348,279.7
		c-0.4,0-0.7,0.1-0.9,0.4s-0.3,0.6-0.3,1.1c0,0.5,0.1,0.8,0.3,1.1s0.5,0.4,0.9,0.4c0.4,0,0.7-0.1,0.9-0.4c0.2-0.3,0.3-0.6,0.3-1.1
		c0-0.5-0.1-0.9-0.3-1.1S-347.6,279.7-348,279.7z"/>
	<path class="st1" d="M-338.8,279l-1.3,4.4h-1l-0.8-3c0-0.1-0.1-0.2-0.1-0.4h0c0,0.1,0,0.2-0.1,0.4l-0.9,3h-1l-1.3-4.4h1l0.8,3.2
		c0,0.1,0,0.2,0.1,0.4h0c0-0.1,0-0.3,0.1-0.4l0.9-3.2h0.9l0.8,3.2c0,0.1,0,0.2,0.1,0.4h0c0-0.1,0-0.2,0.1-0.4l0.8-3.2H-338.8z"/>
	<path class="st1" d="M-338.3,283.3v-0.9c0.4,0.3,0.8,0.4,1.2,0.4c0.6,0,0.9-0.2,0.9-0.5c0-0.1,0-0.2-0.1-0.3
		c-0.1-0.1-0.1-0.1-0.2-0.2c-0.1-0.1-0.2-0.1-0.3-0.1c-0.1,0-0.3-0.1-0.4-0.1c-0.2-0.1-0.3-0.1-0.5-0.2s-0.3-0.2-0.4-0.3
		c-0.1-0.1-0.2-0.2-0.2-0.3c0-0.1-0.1-0.3-0.1-0.5c0-0.2,0-0.4,0.2-0.6c0.1-0.2,0.2-0.3,0.4-0.4c0.2-0.1,0.4-0.2,0.6-0.2
		c0.2-0.1,0.4-0.1,0.7-0.1c0.4,0,0.8,0.1,1.1,0.2v0.9c-0.3-0.2-0.7-0.3-1.1-0.3c-0.1,0-0.2,0-0.3,0s-0.2,0.1-0.3,0.1
		c-0.1,0-0.1,0.1-0.2,0.2s-0.1,0.1-0.1,0.2c0,0.1,0,0.2,0.1,0.2s0.1,0.1,0.2,0.2c0.1,0,0.2,0.1,0.3,0.1c0.1,0,0.2,0.1,0.4,0.1
		c0.2,0.1,0.4,0.2,0.5,0.2c0.1,0.1,0.3,0.2,0.4,0.3s0.2,0.2,0.2,0.4c0.1,0.1,0.1,0.3,0.1,0.5c0,0.2-0.1,0.4-0.2,0.6
		c-0.1,0.2-0.2,0.3-0.4,0.4c-0.2,0.1-0.4,0.2-0.6,0.2s-0.5,0.1-0.7,0.1C-337.6,283.5-338,283.4-338.3,283.3z"/>
</g>
<g>
	<path class="st1" d="M-363.4,277.2l-1.7,6.2h-1.2l-1.2-4.3c0-0.2-0.1-0.4-0.1-0.6h0c0,0.2,0,0.4-0.1,0.6l-1.2,4.3h-1.2l-1.7-6.2
		h1.1l1.1,4.5c0,0.2,0.1,0.4,0.1,0.6h0c0-0.1,0.1-0.3,0.1-0.6l1.3-4.5h1.1l1.2,4.5c0,0.2,0.1,0.3,0.1,0.5h0c0-0.1,0-0.3,0.1-0.6
		l1.1-4.5H-363.4z"/>
	<path class="st1" d="M-362.2,278.1c-0.2,0-0.3-0.1-0.4-0.2c-0.1-0.1-0.2-0.2-0.2-0.4s0.1-0.3,0.2-0.4c0.1-0.1,0.3-0.2,0.4-0.2
		c0.2,0,0.3,0.1,0.4,0.2c0.1,0.1,0.2,0.2,0.2,0.4c0,0.2-0.1,0.3-0.2,0.4C-361.9,278-362,278.1-362.2,278.1z M-361.7,283.4h-1V279h1
		V283.4z"/>
	<path class="st1" d="M-356.5,283.4h-1v-2.5c0-0.8-0.3-1.2-0.9-1.2c-0.3,0-0.6,0.1-0.8,0.3c-0.2,0.2-0.3,0.5-0.3,0.9v2.5h-1V279h1
		v0.7h0c0.3-0.6,0.8-0.8,1.4-0.8c0.5,0,0.8,0.2,1.1,0.5s0.4,0.8,0.4,1.3V283.4z"/>
	<path class="st1" d="M-351.3,283.4h-1v-0.7h0c-0.3,0.6-0.8,0.9-1.5,0.9c-0.5,0-1-0.2-1.3-0.6c-0.3-0.4-0.5-0.9-0.5-1.6
		c0-0.7,0.2-1.3,0.5-1.7c0.4-0.4,0.8-0.7,1.4-0.7c0.6,0,1,0.2,1.3,0.7h0v-2.7h1V283.4z M-352.2,281.4v-0.6c0-0.3-0.1-0.6-0.3-0.8
		c-0.2-0.2-0.5-0.3-0.8-0.3c-0.4,0-0.7,0.1-0.9,0.4c-0.2,0.3-0.3,0.7-0.3,1.2c0,0.4,0.1,0.8,0.3,1.1c0.2,0.3,0.5,0.4,0.8,0.4
		c0.3,0,0.6-0.1,0.8-0.4C-352.4,282.1-352.2,281.8-352.2,281.4z"/>
	<path class="st1" d="M-348,283.5c-0.7,0-1.2-0.2-1.6-0.6c-0.4-0.4-0.6-1-0.6-1.6c0-0.7,0.2-1.3,0.6-1.7c0.4-0.4,1-0.6,1.7-0.6
		c0.7,0,1.2,0.2,1.6,0.6c0.4,0.4,0.6,1,0.6,1.7c0,0.7-0.2,1.3-0.6,1.7C-346.8,283.3-347.3,283.5-348,283.5z M-348,279.7
		c-0.4,0-0.7,0.1-0.9,0.4s-0.3,0.6-0.3,1.1c0,0.5,0.1,0.8,0.3,1.1s0.5,0.4,0.9,0.4c0.4,0,0.7-0.1,0.9-0.4c0.2-0.3,0.3-0.6,0.3-1.1
		c0-0.5-0.1-0.9-0.3-1.1S-347.6,279.7-348,279.7z"/>
	<path class="st1" d="M-338.8,279l-1.3,4.4h-1l-0.8-3c0-0.1-0.1-0.2-0.1-0.4h0c0,0.1,0,0.2-0.1,0.4l-0.9,3h-1l-1.3-4.4h1l0.8,3.2
		c0,0.1,0,0.2,0.1,0.4h0c0-0.1,0-0.3,0.1-0.4l0.9-3.2h0.9l0.8,3.2c0,0.1,0,0.2,0.1,0.4h0c0-0.1,0-0.2,0.1-0.4l0.8-3.2H-338.8z"/>
	<path class="st1" d="M-338.3,283.3v-0.9c0.4,0.3,0.8,0.4,1.2,0.4c0.6,0,0.9-0.2,0.9-0.5c0-0.1,0-0.2-0.1-0.3
		c-0.1-0.1-0.1-0.1-0.2-0.2c-0.1-0.1-0.2-0.1-0.3-0.1c-0.1,0-0.3-0.1-0.4-0.1c-0.2-0.1-0.3-0.1-0.5-0.2s-0.3-0.2-0.4-0.3
		c-0.1-0.1-0.2-0.2-0.2-0.3c0-0.1-0.1-0.3-0.1-0.5c0-0.2,0-0.4,0.2-0.6c0.1-0.2,0.2-0.3,0.4-0.4c0.2-0.1,0.4-0.2,0.6-0.2
		c0.2-0.1,0.4-0.1,0.7-0.1c0.4,0,0.8,0.1,1.1,0.2v0.9c-0.3-0.2-0.7-0.3-1.1-0.3c-0.1,0-0.2,0-0.3,0s-0.2,0.1-0.3,0.1
		c-0.1,0-0.1,0.1-0.2,0.2s-0.1,0.1-0.1,0.2c0,0.1,0,0.2,0.1,0.2s0.1,0.1,0.2,0.2c0.1,0,0.2,0.1,0.3,0.1c0.1,0,0.2,0.1,0.4,0.1
		c0.2,0.1,0.4,0.2,0.5,0.2c0.1,0.1,0.3,0.2,0.4,0.3s0.2,0.2,0.2,0.4c0.1,0.1,0.1,0.3,0.1,0.5c0,0.2-0.1,0.4-0.2,0.6
		c-0.1,0.2-0.2,0.3-0.4,0.4c-0.2,0.1-0.4,0.2-0.6,0.2s-0.5,0.1-0.7,0.1C-337.6,283.5-338,283.4-338.3,283.3z"/>
</g>
</svg>
